<svg xmlns="http://www.w3.org/2000/svg" viewBox="0 0 64 64" fill="none">
<path d="M32 6c9.4 0 17 7.6 17 17v4c0 3.3 2.7 6 6 6v4c-3.3 0-6 2.7-6 6v2c0 9.4-7.6 17-17 17S15 54.4 15 45v-2c0-3.3-2.7-6-6-6v-4c3.3 0 6-2.7 6-6v-4C15 13.6 22.6 6 32 6Z" fill="#0f5132" opacity=".15"/>
<path d="M32 14c5 0 9 4 9 9v4c0 2.2 1.8 4 4 4v2c-2.2 0-4 1.8-4 4v2c0 5-4 9-9 9s-9-4-9-9v-2c0-2.2-1.8-4-4-4v-2c2.2 0 4-1.8 4-4v-4c0-5 4-9 9-9Z" fill="#10b981" opacity=".35"/>
<path d="M27 29h10v2H27v-2Zm0 6h10v2H27v-2Z" fill="#0f172a" opacity=".7"/>
</svg>